<?xml version="1.0" standalone="no"?>
<!DOCTYPE svg PUBLIC "-//W3C//DTD SVG 20010904//EN"
 "http://www.w3.org/TR/2001/REC-SVG-20010904/DTD/svg10.dtd">
<svg version="1.0" xmlns="http://www.w3.org/2000/svg"
 width="1700.000000pt" height="1700.000000pt" viewBox="0 0 1700.000000 1700.000000"
 preserveAspectRatio="xMidYMid meet">

<g transform="translate(0.000000,1700.000000) scale(0.100000,-0.100000)"
fill="#000000" stroke="none">
<path d="M10 8500 l0 -8490 8490 0 8490 0 0 8490 0 8490 -8490 0 -8490 0 0
-8490z m8835 4375 c415 -13 914 -78 1348 -176 177 -40 417 -106 481 -133 62
-26 195 -210 266 -369 l34 -75 261 -148 c143 -81 279 -161 302 -176 49 -33 72
-78 104 -207 23 -88 27 -96 69 -130 98 -78 181 -156 199 -185 31 -50 130 -573
196 -1036 63 -448 111 -923 135 -1358 l9 -173 56 -60 c30 -33 74 -88 98 -122
l42 -62 0 -260 c-1 -280 -10 -389 -56 -667 -90 -539 -307 -1143 -598 -1664
-42 -75 -114 -148 -210 -213 -66 -45 -214 -120 -289 -147 -29 -10 -59 -25 -66
-34 -46 -52 -426 -785 -477 -918 -24 -63 -25 -65 -139 -141 -813 -544 -2122
-719 -3235 -431 -410 105 -780 267 -1046 457 -72 52 -77 57 -109 136 -65 160
-396 798 -459 885 -10 14 -56 39 -114 62 -161 65 -308 159 -393 253 -53 57
-215 363 -314 592 -197 455 -328 930 -387 1405 -13 106 -18 218 -18 416 l0
272 40 58 c22 32 66 86 97 119 l57 61 11 190 c43 756 156 1625 293 2262 28
130 32 135 189 264 81 67 89 77 103 128 42 147 56 189 75 213 11 14 152 101
313 193 l292 167 45 95 c56 119 126 227 193 297 l52 55 156 44 c540 153 1159
246 1769 265 129 4 285 6 345 4 61 -1 187 -5 280 -8z"/>
<path d="M8075 12620 c-548 -35 -1119 -132 -1536 -260 -85 -26 -102 -36 -138
-75 -56 -61 -122 -165 -177 -279 l-46 -94 -274 -158 c-214 -123 -279 -165
-295 -191 -11 -18 -34 -81 -49 -139 -16 -59 -30 -107 -32 -108 -31 -20 -146
-117 -185 -158 l-51 -53 -36 -180 c-125 -629 -217 -1367 -256 -2044 l-11 -183
-50 -57 c-28 -31 -68 -82 -89 -113 l-38 -57 -7 -135 c-22 -408 72 -998 235
-1471 126 -364 350 -840 444 -943 59 -65 222 -168 348 -222 l112 -47 83 -149
c109 -195 311 -597 353 -701 31 -75 38 -85 94 -126 201 -143 486 -281 779
-376 757 -245 1678 -250 2457 -14 276 83 610 242 815 388 58 41 62 46 114 166
61 141 202 419 332 655 l89 161 62 23 c89 32 171 74 263 135 135 89 166 130
296 390 270 539 416 1005 490 1560 19 139 23 219 23 436 l1 267 -40 58 c-22
32 -63 83 -91 114 l-51 55 -12 210 c-37 657 -131 1400 -257 2030 l-34 170 -77
75 c-43 42 -97 91 -121 110 -40 33 -45 42 -71 142 -16 59 -39 121 -50 137 -14
19 -115 83 -294 186 l-272 157 -58 117 c-31 64 -88 157 -125 206 l-68 89 -89
29 c-368 118 -890 212 -1425 258 -167 14 -810 20 -985 9z m-720 -2705 c55 -83
79 -109 111 -125 39 -20 62 -20 1038 -20 901 0 1001 2 1032 16 25 12 57 48
110 125 l75 109 620 0 619 0 0 -152 1 -153 94 -115 95 -115 0 -160 c0 -146 -3
-172 -33 -296 -32 -130 -36 -140 -113 -260 l-79 -125 -44 -314 -45 -315 -125
-129 c-339 -346 -739 -612 -1231 -817 l-114 -47 -156 147 c-128 122 -164 151
-205 164 -163 53 -427 76 -662 59 -157 -12 -299 -37 -365 -65 -19 -8 -103 -79
-187 -158 -89 -83 -160 -143 -169 -141 -37 8 -258 109 -406 185 -237 122 -450
260 -654 423 -106 84 -341 312 -374 361 -22 34 -30 72 -68 343 l-42 305 -79
122 c-75 115 -81 130 -109 245 -28 113 -30 136 -30 303 l1 180 89 110 90 110
0 152 0 153 623 0 622 -1 70 -104z m1320 -2666 c111 -11 234 -38 283 -61 20
-10 37 -39 73 -123 26 -60 45 -113 41 -116 -14 -13 -212 -38 -390 -50 -139 -8
-227 -8 -365 0 -154 10 -341 32 -384 46 -8 3 4 42 37 117 54 127 55 128 177
158 143 37 345 47 528 29z"/>
</g>
</svg>
